<mxfile host="app.diagrams.net" modified="2024-01-17T17:12:20.907Z" agent="Mozilla/5.0 (Windows NT 10.0; Win64; x64) AppleWebKit/537.36 (KHTML, like Gecko) Chrome/119.0.0.0 Safari/537.36 OPR/105.0.0.0" etag="5a1DbekpwMaF7R5rdDmv" version="22.1.21" type="github">
  <diagram name="Page-1" id="7Ju_sAUxVDDy9Qz-g1bF">
    <mxGraphModel dx="1009" dy="573" grid="1" gridSize="10" guides="1" tooltips="1" connect="1" arrows="1" fold="1" page="1" pageScale="1" pageWidth="1169" pageHeight="827" math="0" shadow="0">
      <root>
        <mxCell id="0" />
        <mxCell id="1" parent="0" />
        <mxCell id="kVE6UbodAsbrO8NjnQrT-7" value="&lt;font style=&quot;font-size: 20px;&quot; face=&quot;Courier New&quot;&gt;&lt;b&gt;&amp;lt;input&amp;gt;&lt;/b&gt;&lt;/font&gt;" style="text;html=1;strokeColor=none;fillColor=none;align=center;verticalAlign=middle;whiteSpace=wrap;rounded=0;" vertex="1" parent="1">
          <mxGeometry x="500" y="100" width="110" height="30" as="geometry" />
        </mxCell>
        <mxCell id="kVE6UbodAsbrO8NjnQrT-12" value="&lt;font style=&quot;font-size: 20px;&quot; face=&quot;Courier New&quot;&gt;&lt;b&gt;RESERVED_INPUT&lt;/b&gt;&lt;/font&gt;" style="text;html=1;strokeColor=none;fillColor=none;align=center;verticalAlign=middle;whiteSpace=wrap;rounded=0;" vertex="1" parent="1">
          <mxGeometry x="220" y="230" width="190" height="30" as="geometry" />
        </mxCell>
        <mxCell id="kVE6UbodAsbrO8NjnQrT-13" value="&lt;font style=&quot;font-size: 20px;&quot; face=&quot;Courier New&quot;&gt;&lt;b&gt;&amp;lt;variable(s)&amp;gt;&lt;/b&gt;&lt;/font&gt;" style="text;html=1;strokeColor=none;fillColor=none;align=center;verticalAlign=middle;whiteSpace=wrap;rounded=0;" vertex="1" parent="1">
          <mxGeometry x="460" y="230" width="190" height="30" as="geometry" />
        </mxCell>
        <mxCell id="kVE6UbodAsbrO8NjnQrT-14" value="&lt;font style=&quot;font-size: 20px;&quot; face=&quot;Courier New&quot;&gt;&lt;b&gt;SENTENCE_BREAK&lt;/b&gt;&lt;/font&gt;" style="text;html=1;strokeColor=none;fillColor=none;align=center;verticalAlign=middle;whiteSpace=wrap;rounded=0;" vertex="1" parent="1">
          <mxGeometry x="690" y="230" width="190" height="30" as="geometry" />
        </mxCell>
        <mxCell id="kVE6UbodAsbrO8NjnQrT-17" value="" style="endArrow=classic;html=1;rounded=0;exitX=0;exitY=1;exitDx=0;exitDy=0;entryX=0.541;entryY=0.053;entryDx=0;entryDy=0;entryPerimeter=0;" edge="1" parent="1" source="kVE6UbodAsbrO8NjnQrT-7" target="kVE6UbodAsbrO8NjnQrT-12">
          <mxGeometry width="50" height="50" relative="1" as="geometry">
            <mxPoint x="630" y="320" as="sourcePoint" />
            <mxPoint x="680" y="270" as="targetPoint" />
          </mxGeometry>
        </mxCell>
        <mxCell id="kVE6UbodAsbrO8NjnQrT-18" value="" style="endArrow=classic;html=1;rounded=0;exitX=0.5;exitY=1;exitDx=0;exitDy=0;" edge="1" parent="1" source="kVE6UbodAsbrO8NjnQrT-7" target="kVE6UbodAsbrO8NjnQrT-13">
          <mxGeometry width="50" height="50" relative="1" as="geometry">
            <mxPoint x="510" y="140" as="sourcePoint" />
            <mxPoint x="333" y="242" as="targetPoint" />
          </mxGeometry>
        </mxCell>
        <mxCell id="kVE6UbodAsbrO8NjnQrT-19" value="" style="endArrow=classic;html=1;rounded=0;exitX=1;exitY=1;exitDx=0;exitDy=0;entryX=0.451;entryY=-0.08;entryDx=0;entryDy=0;entryPerimeter=0;" edge="1" parent="1" source="kVE6UbodAsbrO8NjnQrT-7" target="kVE6UbodAsbrO8NjnQrT-14">
          <mxGeometry width="50" height="50" relative="1" as="geometry">
            <mxPoint x="565" y="140" as="sourcePoint" />
            <mxPoint x="565" y="240" as="targetPoint" />
          </mxGeometry>
        </mxCell>
        <mxCell id="kVE6UbodAsbrO8NjnQrT-48" value="&lt;p style=&quot;line-height:1.38;margin-left: 36pt;margin-top:0pt;margin-bottom:0pt;&quot; dir=&quot;ltr&quot;&gt;&lt;/p&gt;&lt;div&gt;&lt;/div&gt;&lt;span style=&quot;font-size: 12pt; font-family: Consolas, sans-serif; background-color: transparent; font-weight: 700; font-variant-numeric: normal; font-variant-east-asian: normal; font-variant-alternates: normal; font-variant-position: normal; vertical-align: baseline;&quot;&gt;&amp;lt;variable(s)&amp;gt;&lt;/span&gt;&lt;span style=&quot;font-size: 12pt; font-family: Consolas, sans-serif; background-color: transparent; font-variant-numeric: normal; font-variant-east-asian: normal; font-variant-alternates: normal; font-variant-position: normal; vertical-align: baseline;&quot;&gt; :== &amp;lt;identifier&amp;gt; { &lt;/span&gt;&lt;span style=&quot;font-size: 12pt; font-family: Consolas, sans-serif; background-color: transparent; font-style: italic; font-variant-numeric: normal; font-variant-east-asian: normal; font-variant-alternates: normal; font-variant-position: normal; vertical-align: baseline;&quot;&gt;COMMA&lt;/span&gt;&lt;span style=&quot;font-size: 12pt; font-family: Consolas, sans-serif; background-color: transparent; font-variant-numeric: normal; font-variant-east-asian: normal; font-variant-alternates: normal; font-variant-position: normal; vertical-align: baseline;&quot;&gt; &amp;lt;identifier&amp;gt; }&lt;/span&gt;&lt;p&gt;&lt;/p&gt;&lt;span id=&quot;docs-internal-guid-a6600e4d-7fff-0cf2-b259-b86277cd47f8&quot;&gt;&lt;/span&gt;" style="text;html=1;strokeColor=none;fillColor=none;align=center;verticalAlign=middle;whiteSpace=wrap;rounded=0;" vertex="1" parent="1">
          <mxGeometry x="330" y="590" width="490" height="30" as="geometry" />
        </mxCell>
        <mxCell id="kVE6UbodAsbrO8NjnQrT-49" value="&lt;font style=&quot;font-size: 20px;&quot; face=&quot;Courier New&quot;&gt;&lt;b&gt;&amp;lt;identifier&amp;gt;&lt;/b&gt;&lt;/font&gt;" style="text;html=1;strokeColor=none;fillColor=none;align=center;verticalAlign=middle;whiteSpace=wrap;rounded=0;" vertex="1" parent="1">
          <mxGeometry x="460" y="370" width="190" height="30" as="geometry" />
        </mxCell>
        <mxCell id="kVE6UbodAsbrO8NjnQrT-50" value="" style="endArrow=classic;html=1;rounded=0;exitX=0.5;exitY=1;exitDx=0;exitDy=0;" edge="1" parent="1">
          <mxGeometry width="50" height="50" relative="1" as="geometry">
            <mxPoint x="554.5" y="270" as="sourcePoint" />
            <mxPoint x="554.5" y="370" as="targetPoint" />
          </mxGeometry>
        </mxCell>
        <mxCell id="kVE6UbodAsbrO8NjnQrT-55" value="" style="endArrow=classic;html=1;rounded=0;" edge="1" parent="1">
          <mxGeometry width="50" height="50" relative="1" as="geometry">
            <mxPoint x="560" y="410" as="sourcePoint" />
            <mxPoint x="560" y="500" as="targetPoint" />
          </mxGeometry>
        </mxCell>
        <mxCell id="kVE6UbodAsbrO8NjnQrT-56" value="&lt;font style=&quot;font-size: 20px;&quot; face=&quot;Courier New&quot;&gt;&lt;b&gt;x&lt;/b&gt;&lt;/font&gt;" style="text;html=1;strokeColor=none;fillColor=none;align=center;verticalAlign=middle;whiteSpace=wrap;rounded=0;" vertex="1" parent="1">
          <mxGeometry x="470" y="510" width="190" height="30" as="geometry" />
        </mxCell>
      </root>
    </mxGraphModel>
  </diagram>
</mxfile>
